<svg width="24" height="25" viewBox="0 0 24 25" fill="none" xmlns="http://www.w3.org/2000/svg">
<path d="M16.75 3.89203V2.33203C16.75 1.92203 16.41 1.58203 16 1.58203C15.59 1.58203 15.25 1.92203 15.25 2.33203V3.83203H8.74999V2.33203C8.74999 1.92203 8.40999 1.58203 7.99999 1.58203C7.58999 1.58203 7.24999 1.92203 7.24999 2.33203V3.89203C4.54999 4.14203 3.23999 5.75203 3.03999 8.14203C3.01999 8.43203 3.25999 8.67203 3.53999 8.67203H20.46C20.75 8.67203 20.99 8.42203 20.96 8.14203C20.76 5.75203 19.45 4.14203 16.75 3.89203Z" fill="#A29BB1"/>
<path d="M20 10.1719H4C3.45 10.1719 3 10.6219 3 11.1719V17.3319C3 20.3319 4.5 22.3319 8 22.3319H16C19.5 22.3319 21 20.3319 21 17.3319V11.1719C21 10.6219 20.55 10.1719 20 10.1719ZM9.21 18.5419C9.11 18.6319 9 18.7019 8.88 18.7519C8.76 18.8019 8.63 18.8319 8.5 18.8319C8.37 18.8319 8.24 18.8019 8.12 18.7519C8 18.7019 7.89 18.6319 7.79 18.5419C7.61 18.3519 7.5 18.0919 7.5 17.8319C7.5 17.5719 7.61 17.3119 7.79 17.1219C7.89 17.0319 8 16.9619 8.12 16.9119C8.36 16.8119 8.64 16.8119 8.88 16.9119C9 16.9619 9.11 17.0319 9.21 17.1219C9.39 17.3119 9.5 17.5719 9.5 17.8319C9.5 18.0919 9.39 18.3519 9.21 18.5419ZM9.42 14.7119C9.37 14.8319 9.3 14.9419 9.21 15.0419C9.11 15.1319 9 15.2019 8.88 15.2519C8.76 15.3019 8.63 15.3319 8.5 15.3319C8.37 15.3319 8.24 15.3019 8.12 15.2519C8 15.2019 7.89 15.1319 7.79 15.0419C7.7 14.9419 7.63 14.8319 7.58 14.7119C7.53 14.5919 7.5 14.4619 7.5 14.3319C7.5 14.2019 7.53 14.0719 7.58 13.9519C7.63 13.8319 7.7 13.7219 7.79 13.6219C7.89 13.5319 8 13.4619 8.12 13.4119C8.36 13.3119 8.64 13.3119 8.88 13.4119C9 13.4619 9.11 13.5319 9.21 13.6219C9.3 13.7219 9.37 13.8319 9.42 13.9519C9.47 14.0719 9.5 14.2019 9.5 14.3319C9.5 14.4619 9.47 14.5919 9.42 14.7119ZM12.71 15.0419C12.61 15.1319 12.5 15.2019 12.38 15.2519C12.26 15.3019 12.13 15.3319 12 15.3319C11.87 15.3319 11.74 15.3019 11.62 15.2519C11.5 15.2019 11.39 15.1319 11.29 15.0419C11.11 14.8519 11 14.5919 11 14.3319C11 14.0719 11.11 13.8119 11.29 13.6219C11.39 13.5319 11.5 13.4619 11.62 13.4119C11.86 13.3019 12.14 13.3019 12.38 13.4119C12.5 13.4619 12.61 13.5319 12.71 13.6219C12.89 13.8119 13 14.0719 13 14.3319C13 14.5919 12.89 14.8519 12.71 15.0419Z" fill="#A29BB1"/>
</svg>

